# xmcd
#
# Track frame offsets:
#	150
#	11999
#	26143
#	43108
#	48542
#	59251
#	69583
#	75024
#	86738
#	96256
#	119303
#	131436
#	142433
#	159910
#	171258
#	189220
#	199272
#	209632
#	220020
#
# Disc length: 3068 seconds
#
# Revision: 1
# Processed by: cddbd v1.5.2PL0 Copyright (c) Steve Scherf et al.
# Submitted via: audiograbber 1.83.01
#
DISCID=160bfa13
DTITLE=HERMANEK - Vzpominka na Ameriku
DYEAR=1997
DGENRE=Bluegrass
TTITLE0=Valasska
TTITLE1=Mesto
TTITLE2=Pohori jmenem Church
TTITLE3=Skotska sukne
TTITLE4=Caroline
TTITLE5=Az sejde snih
TTITLE6=Sevreni ohnem
TTITLE7=Mary Lynn
TTITLE8=Stop Time
TTITLE9=Mirim k nam
TTITLE10=Kdyz silu mas tak rozdavej
TTITLE11=Hewlet
TTITLE12=Nejsladsi pisen
TTITLE13=My prani
TTITLE14=Vanocni
TTITLE15=Ctyrlistek
TTITLE16=Odjizdim
TTITLE17=Ptas se kamarade
TTITLE18=Sroubovak
EXTD=
EXTT0=
EXTT1=
EXTT2=
EXTT3=
EXTT4=
EXTT5=
EXTT6=
EXTT7=
EXTT8=
EXTT9=
EXTT10=
EXTT11=
EXTT12=
EXTT13=
EXTT14=
EXTT15=
EXTT16=
EXTT17=
EXTT18=
PLAYORDER=
